<svg xmlns="http://www.w3.org/2000/svg" xmlns:xlink="http://www.w3.org/1999/xlink" version="1.1" x="0px" y="0px" viewBox="0 0 24 30" style="enable-background:new 0 0 24 24;" xml:space="preserve"><g><path d="M18.275,5.723C16.597,4.047,14.369,3.125,12,3.125c-2.37,0-4.599,0.923-6.276,2.6C4.048,7.4,3.125,9.629,3.125,12   c0,2.37,0.923,4.599,2.6,6.274c1.678,1.678,3.907,2.601,6.277,2.601c2.371,0,4.6-0.923,6.274-2.6c1.676-1.675,2.6-3.903,2.6-6.274   C20.876,9.631,19.952,7.4,18.275,5.723z M12,3.791c2.194,0,4.255,0.854,5.803,2.404c1.551,1.55,2.406,3.611,2.406,5.806   c0,2.192-0.854,4.254-2.404,5.804c-1.55,1.55-3.611,2.404-5.803,2.404c-2.194,0-4.256-0.854-5.806-2.405S3.791,14.191,3.791,12   c0-2.193,0.854-4.255,2.404-5.805C7.744,4.646,9.805,3.791,12,3.791z"/><path d="M7.659,12.333l8.683,0.001c0.184,0,0.333-0.149,0.333-0.333s-0.149-0.333-0.333-0.333H7.659   c-0.184,0-0.333,0.148-0.333,0.332S7.476,12.333,7.659,12.333z"/></g><text x="0" y="39" fill="#000000" font-size="5px" font-weight="bold" font-family="'Helvetica Neue', Helvetica, Arial-Unicode, Arial, Sans-serif">Created by AlePio</text><text x="0" y="44" fill="#000000" font-size="5px" font-weight="bold" font-family="'Helvetica Neue', Helvetica, Arial-Unicode, Arial, Sans-serif">from the Noun Project</text></svg>